<?xml version="1.0" encoding="utf-8"?>
<!-- Generator: Adobe Illustrator 27.2.0, SVG Export Plug-In . SVG Version: 6.00 Build 0)  -->
<svg version="1.1" id="Слой_1" xmlns="http://www.w3.org/2000/svg" xmlns:xlink="http://www.w3.org/1999/xlink" x="0px" y="0px"
	 viewBox="0 0 841.9 595.3" style="enable-background:new 0 0 841.9 595.3;" xml:space="preserve">
<style type="text/css">
	.st0{fill:#040373;}
	.st1{fill:#D70201;}
</style>
<path class="st0" d="M225.7,123.7c1.3,0.3,2.5,0.7,3.7,0.9c9.6,2.8,17.8,6.7,23.9,11.6c5.9,4.7,10.2,10,13,16.3
	c2.9,6.6,4.4,13.5,4.4,21.5c0,8.4-1.1,15.9-3.2,22.3c-2.1,6.6-5.1,12.7-8.7,18c-3.7,5.5-8,10.7-12.8,15.2
	c-5.5,5.2-11.1,10.3-16.8,15.2l-76.9,65.4l-25.4,21.5h-10.2v-4.9l102.9-87.4c8.7-6.7,16.4-15,23-24.5c7.5-10.8,11.2-23.5,11.2-37.4
	c0-18.3-5.6-33.3-16.6-44.6C233.9,129.1,230.1,126.1,225.7,123.7 M192.2,105.2c-19.7,0-37.3,3.1-52.9,9.4
	c-15.5,6.3-29.1,14.8-40.5,25.8l13.5,20.2c11.5-11,23.4-18.7,35.7-23.3c12.3-4.5,26.1-6.8,41.2-6.8c16.7,0,29.1,4.3,37.3,12.7
	c8.3,8.6,12.3,19.9,12.3,34.2c0,11-2.8,20.6-8.6,29c-5.7,8.4-12.4,15.5-20.1,21.3l-108.4,92.2v26.7h186.8v-25.1H162l76.9-65.4
	c6-5.1,11.9-10.4,17.5-15.8c5.6-5.3,10.6-11.2,15-17.8c4.3-6.6,7.8-13.6,10.4-21.7c2.7-7.9,3.9-17,3.9-27c0-10-1.9-19.3-5.7-27.7
	c-3.9-8.4-9.6-15.6-17.4-21.8c-7.8-6.1-17.4-10.8-29.1-14.3C221.9,106.8,208.1,105.2,192.2,105.2L192.2,105.2z"/>
<path class="st0" d="M422.8,143.8v142.6v8.4v15v38.6h-14.7v-38.6v-8.4v-15v-114v-15h-15h-3.1h-6.7l-4.4,4.9l-103.3,114L258.8,295
	h-1.9v-5.7l131.9-145.4H422.8 M437.9,128.9h-55.5L242.1,283.4v26.5h151.1v53.6h44.6v-53.6H464v-23.4h-26.2L437.9,128.9L437.9,128.9z
	 M286.7,286.5l103.3-114h3.1v114H286.7L286.7,286.5z"/>
<path class="st0" d="M482.9,156.7v8.4v70.4v17.9c-0.3,0.1-0.5,0.4-0.7,0.5h-11.9v-97.5L482.9,156.7 M577.6,244.2
	c11.6,2.8,21,7.4,27.8,13.5c12.6,11.2,18.7,26.5,18.7,46.5c0,20.1-6.3,35.2-19,46.4c-6.8,6-16,10.4-27.5,13.4
	c4.9-2.7,9.4-6,13.1-9.9c11.9-12.3,17.9-29.1,17.9-49.7s-5.9-37.3-17.4-49.6C587.1,250.5,582.7,247,577.6,244.2 M621.5,141.6H455.3
	v127.5h32.4c7.5-6.7,15.8-11.5,25.1-14.3c9.4-2.8,18-4.1,26.3-4.1c18.4,0,32.1,4.7,41,14.3c9,9.5,13.4,22.6,13.4,39.4
	c0,16.8-4.5,29.9-13.6,39.4c-9.1,9.5-23.7,14.3-43.7,14.3c-14.2,0-27.4-2.7-39.7-7.9c-12.3-5.2-24.1-13.8-35.3-25.7l-14.7,20.1
	c11.2,11.9,24.7,21.3,40.9,28.2c16,7,33.3,10.4,51.7,10.4c34.5,0,59.8-7.1,75.9-21.1c16-14,24.1-33.3,24.1-57.6s-7.9-43.6-23.7-57.6
	s-40.2-21.1-73.4-21.1c-6.7,0-12.7,0.5-18,1.6c-5.3,1.1-10,2.3-14,3.3c-4.5,1.6-8.6,3.2-12,5.1v-70.4h123.5L621.5,141.6L621.5,141.6
	z"/>
<path class="st1" d="M531.9,453.5c-40.2,0-80.9-8.8-122.7-17.8c-39.7-8.6-66.6-17.9-88.1-25.4c-4.9-1.7-9.6-3.3-14.2-4.8
	c-88-29.1-190.6-34.2-305.3-15.2L0,380.9c116.3-19.3,220.4-14,309.9,15.6c4.5,1.5,9.2,3.1,14.3,4.8c21.4,7.4,47.9,16.6,87,25.1
	c71,15.4,138,29.8,205.3,1.1c23.8-10.2,73.1-31.3,90.6-82.7c18-53.1-9.2-102.4-18-116.2l8-5.1c9.4,14.7,38.5,67.4,19,124.3
	c-19,55.5-70.9,77.7-95.8,88.4C590.7,448.8,561.3,453.5,531.9,453.5z"/>
<path class="st1" d="M587.3,500.2c-42.8,0-86.1-8.7-130.7-17.8c-42.2-8.6-70.9-17.8-94-25.3c-5.3-1.7-10.4-3.3-15.2-4.8
	c-94.5-29.3-204.8-34.5-328.1-15.4l-0.7-4.7c123.9-19.3,235-14,330.2,15.5c4.8,1.5,9.9,3.1,15.2,4.8c22.9,7.4,51.3,16.7,93.4,25.1
	c76.3,15.4,148.5,30.1,221.4,0.9c25.7-10.3,79.3-31.7,98.5-84.2c19.7-54-10-104.1-19.5-118.2l3.9-2.7c9.9,14.6,40.5,66.3,20.1,122.5
	c-19.9,54.4-74.7,76.5-101.2,86.9C649.4,495.7,618.4,500.2,587.3,500.2z"/>
<path class="st1" d="M637.8,535c-43.6,0-87.6-8.7-133-17.6c-43-8.6-72.2-17.8-95.7-25.3c-5.5-1.7-10.7-3.3-15.5-4.8
	C296.9,458,183.9,452.8,58,471.9l-0.3-1.6C183.9,451,297,456.3,394,485.7c4.9,1.5,10,3.1,15.5,4.8c23.4,7.5,52.5,16.7,95.6,25.1
	c78.2,15.5,152.1,30.1,226.9,0.8c26.5-10.4,81.5-31.9,101.5-85.2c20.3-54.7-10.3-105.3-20.1-119.5l1.3-0.9
	c10,14.4,40.9,65.6,20.3,121c-20.1,53.7-75.7,75.5-102.4,86.1C700.9,530.5,669.5,535,637.8,535z"/>
<path class="st0" d="M58.8,204.7c11.8,0,21.3,9.5,21.3,21.3c0,11.8-9.5,21.3-21.3,21.3s-21.3-9.5-21.3-21.3
	C37.6,214.2,47.1,204.7,58.8,204.7 M58.8,189.7c-20.1,0-36.2,16.2-36.2,36.2s16.2,36.2,36.2,36.2S95,246,95,225.9
	C95,205.9,78.9,189.7,58.8,189.7L58.8,189.7z"/>
<rect x="703.8" y="376.1" transform="matrix(0.5939 -0.8045 0.8045 0.5939 -35.5237 733.22)" class="st1" width="9.5" height="51.3"/>
<g>
	<path class="st1" d="M351.7,107.9h-10.6L337.8,84l-10.3,23.9h-5.6l-10.3-24.1l-3.3,24.1h-10.4l6.3-42.8h9.2L324.8,92l11.5-26.9h9.1
		L351.7,107.9z"/>
	<path class="st1" d="M393.7,65.1h7.5v42.8h-10.6V82.5l-21.8,25.4h-7.4V65.1h10.4v25.5L393.7,65.1z"/>
	<path class="st1" d="M445.3,65.1h7.5v42.8h-10.6V82.5l-21.8,25.4h-7.4V65.1h10.4v25.5L445.3,65.1z"/>
	<path class="st1" d="M464.7,107.9V65.1h26.5v9.6h-15.8v33.2H464.7z"/>
	<path class="st1" d="M523.1,107.9l-2.9-8.4h-16l-2.8,8.4h-10.8l16.3-42.8H518l16.3,42.8H523.1z M517.5,90.6l-5.2-14.8l-5.2,14.8
		H517.5z"/>
	<path class="st1" d="M565.6,76.2h7.1V108h-9.8V90.9L548.5,108h-7.2V76.2h9.8v17.1L565.6,76.2z"/>
	<path class="st1" d="M622.2,107.9h-13.1L594.9,89v18.8h-10.7V65.1h10.7v18.2l13.4-18.2h12.6l-15.6,20.5L622.2,107.9z"/>
</g>
</svg>
