<svg width="508" height="302" viewBox="0 0 508 302" fill="none" xmlns="http://www.w3.org/2000/svg">
<path fill-rule="evenodd" clip-rule="evenodd" d="M495.376 20.5841C498.941 8.70293 495.376 0.386108 478.743 0.386108H423.297C409.04 0.386108 402.703 7.91086 399.139 16.2277C399.139 16.2277 371.02 85.1386 331.02 129.495C317.95 142.564 312.406 146.525 305.277 146.525C301.713 146.525 296.564 142.564 296.564 130.683V20.5841C296.564 6.3267 292.604 0.386108 280.723 0.386108H193.594C184.881 0.386108 179.337 7.11877 179.337 13.0594C179.337 26.5247 199.139 29.6931 201.515 66.9208V148.505C201.515 166.327 198.347 169.495 191.218 169.495C172.604 169.495 126.663 100.584 99.7327 21.3762C94.1881 6.72275 89.0396 0.386108 74.7822 0.386108H19.3366C3.49504 0.386108 0.326721 7.91086 0.326721 16.2277C0.326721 30.8812 18.9406 103.752 87.8515 199.99C133.792 265.733 198.347 301.376 256.96 301.376C292.208 301.376 296.564 293.455 296.564 279.99V230.089C296.564 214.248 299.733 211.079 311.218 211.079C319.535 211.079 333.396 215.04 366.267 246.723C403.891 284.347 410.228 301.376 431.218 301.376H486.663C502.505 301.376 510.426 293.455 505.673 278.01C500.525 262.564 482.703 239.99 458.941 213.059C445.871 197.614 426.465 181.376 420.921 173.059C412.604 162.366 414.98 157.614 420.921 148.505C420.921 148.109 488.644 53.0594 495.376 20.5841Z" fill="white"/>
</svg>
